<?xml version="1.0" encoding="UTF-8" standalone="no"?>
<!-- Created with Inkscape (http://www.inkscape.org/) -->

<svg
   xmlns:dc="http://purl.org/dc/elements/1.1/"
   xmlns:cc="http://creativecommons.org/ns#"
   xmlns:rdf="http://www.w3.org/1999/02/22-rdf-syntax-ns#"
   xmlns:svg="http://www.w3.org/2000/svg"
   xmlns="http://www.w3.org/2000/svg"
   xmlns:sodipodi="http://sodipodi.sourceforge.net/DTD/sodipodi-0.dtd"
   xmlns:inkscape="http://www.inkscape.org/namespaces/inkscape"
   width="1719.2463"
   height="794.97998"
   id="svg2"
   version="1.1"
   inkscape:version="0.48.4 r9939"
   sodipodi:docname="logscales.svg">
  <defs
     id="defs4" />
  <sodipodi:namedview
     id="base"
     pagecolor="#ffffff"
     bordercolor="#666666"
     borderopacity="1.0"
     inkscape:pageopacity="0.0"
     inkscape:pageshadow="2"
     inkscape:zoom="0.4856356"
     inkscape:cx="1308.3277"
     inkscape:cy="810.99337"
     inkscape:document-units="px"
     inkscape:current-layer="layer1"
     showgrid="false"
     inkscape:window-width="1379"
     inkscape:window-height="1027"
     inkscape:window-x="0"
     inkscape:window-y="0"
     inkscape:window-maximized="0"
     inkscape:object-nodes="false"
     fit-margin-top="20"
     fit-margin-left="20"
     fit-margin-right="20"
     fit-margin-bottom="20"
     inkscape:snap-nodes="true"
     inkscape:object-paths="false"
     inkscape:snap-object-midpoints="true" />
  <metadata
     id="metadata7">
    <rdf:RDF>
      <cc:Work
         rdf:about="">
        <dc:format>image/svg+xml</dc:format>
        <dc:type
           rdf:resource="http://purl.org/dc/dcmitype/StillImage" />
        <dc:title />
      </cc:Work>
    </rdf:RDF>
  </metadata>
  <g
     inkscape:label="Layer 1"
     inkscape:groupmode="layer"
     id="layer1"
     transform="translate(127.31635,-234.86818)">
    <text
       xml:space="preserve"
       style="font-size:36px;font-style:normal;font-variant:normal;font-weight:normal;font-stretch:normal;text-align:end;line-height:125%;letter-spacing:0px;word-spacing:0px;text-anchor:end;fill:#000000;fill-opacity:1;stroke:none;font-family:Nimbus Sans L;-inkscape-font-specification:Nimbus Sans L"
       x="32.63332"
       y="1067.5217"
       id="text2989"
       sodipodi:linespacing="125%"
       transform="scale(1.4419925,0.69348489)"><tspan
         sodipodi:role="line"
         id="tspan2991"
         x="32.63332"
         y="1067.5217" /></text>
    <text
       xml:space="preserve"
       style="font-size:36px;font-style:normal;font-variant:normal;font-weight:normal;font-stretch:normal;text-align:end;line-height:125%;letter-spacing:0px;word-spacing:0px;text-anchor:end;fill:#000000;fill-opacity:1;stroke:none;font-family:Nimbus Sans L;-inkscape-font-specification:Nimbus Sans L"
       x="22.861088"
       y="1065.4644"
       id="text2993"
       sodipodi:linespacing="125%"
       transform="scale(1.4419925,0.69348489)"><tspan
         sodipodi:role="line"
         id="tspan2995"
         x="22.861088"
         y="1065.4644" /></text>
    <path
       id="path4550"
       style="color:#000000;fill:none;stroke:#000000;stroke-width:2.5;stroke-linecap:butt;stroke-linejoin:miter;stroke-miterlimit:4;stroke-opacity:1;stroke-dasharray:none;stroke-dashoffset:0;marker:none;visibility:visible;display:inline;overflow:visible;enable-background:accumulate"
       d="m 37.86019,515.87305 14.61238,0 m -14.61238,-46.60618 14.61238,0 m -14.61238,-33.05141 14.61238,0 m -14.61238,-25.62412 14.61238,0 m -14.61238,-20.98207 14.61238,0 m -14.61238,-17.63982 14.61238,0 m -14.61238,-15.41161 14.61238,0 m -14.61238,-13.55478 14.61238,0 m -14.61238,437.28124 14.61238,0 m -14.61238,-46.60619 14.61238,0 m -14.61238,-33.05143 14.61238,0 m -14.61238,-25.6241 14.61238,0 m -14.61238,-20.98208 14.61238,0 m -14.61238,-17.6398 14.61238,0 m -14.61238,-15.41161 14.61238,0 m -14.61238,-13.36912 14.61238,0 m -14.61238,-12.25501 29.22478,0 m -14.6124,402.74444 -14.61238,0 0,-667.15567 29.22478,0 m -29.22478,634.10421 14.61238,0 m -14.61238,-25.6241 14.61238,0 m -14.61238,-20.79639 14.61238,0 m -14.61238,-17.82549 14.61238,0 m -14.61238,-15.22594 14.61238,0 m -14.61238,-13.55479 14.61238,0 m -14.61238,-12.06932 29.22478,0"
       inkscape:connector-curvature="0"
       sodipodi:nodetypes="cccccccccccccccccccccccccccccccccccccccccccccccccccc" />
    <text
       xml:space="preserve"
       style="font-size:32px;font-style:normal;font-variant:normal;font-weight:normal;font-stretch:normal;text-align:end;line-height:125%;letter-spacing:0px;word-spacing:0px;text-anchor:end;fill:#000000;fill-opacity:1;stroke:none;font-family:Nimbus Sans L;-inkscape-font-specification:Nimbus Sans L"
       x="17.964287"
       y="870.89789"
       id="text4554"
       sodipodi:linespacing="125%"><tspan
         sodipodi:role="line"
         id="tspan4556"
         x="17.964287"
         y="870.89789">10 MB</tspan></text>
    <text
       xml:space="preserve"
       style="font-size:32px;font-style:normal;font-variant:normal;font-weight:normal;font-stretch:normal;text-align:end;line-height:125%;letter-spacing:0px;word-spacing:0px;text-anchor:end;fill:#000000;fill-opacity:1;stroke:none;font-family:Nimbus Sans L;-inkscape-font-specification:Nimbus Sans L"
       x="17.785713"
       y="606.43359"
       id="text4558"
       sodipodi:linespacing="125%"><tspan
         sodipodi:role="line"
         id="tspan4560"
         x="17.785713"
         y="606.43359">100 MB</tspan></text>
    <text
       xml:space="preserve"
       style="font-size:32px;font-style:normal;font-variant:normal;font-weight:normal;font-stretch:normal;text-align:end;line-height:125%;letter-spacing:0px;word-spacing:0px;text-anchor:end;fill:#000000;fill-opacity:1;stroke:none;font-family:Nimbus Sans L;-inkscape-font-specification:Nimbus Sans L"
       x="17.607147"
       y="341.96933"
       id="text4562"
       sodipodi:linespacing="125%"><tspan
         sodipodi:role="line"
         id="tspan4564"
         x="17.607147"
         y="341.96933">1000 MB</tspan></text>
    <text
       xml:space="preserve"
       style="font-size:32px;font-style:normal;font-variant:normal;font-weight:normal;font-stretch:normal;text-align:end;line-height:125%;letter-spacing:0px;word-spacing:0px;text-anchor:end;fill:#000000;fill-opacity:1;stroke:none;font-family:Nimbus Sans L;-inkscape-font-specification:Nimbus Sans L"
       x="17.785713"
       y="1009.1122"
       id="text4566"
       sodipodi:linespacing="125%"><tspan
         sodipodi:role="line"
         id="tspan4568"
         x="17.785713"
         y="1009.1122">3 MB</tspan></text>
    <path
       sodipodi:nodetypes="cccccccccccccccccccccccccccccccccccccccccccccccccccccccccccccccccccccccccc"
       inkscape:connector-curvature="0"
       d="m 1431.7991,447.56498 -14.6123,0 m 14.6123,-29.35298 -14.6123,0 m 14.6123,-20.92179 -14.6123,0 m 14.6123,-16.0817 -14.6123,0 m 14.6123,-13.27129 -14.6123,0 m 14.6123,-11.24157 -14.6123,0 m 14.6123,-9.52409 -14.6123,0 m 14.6123,-8.58731 -14.6123,0 m 14.6123,275.73061 -14.6123,0 m 14.6123,-29.35297 -14.6123,0 m 14.6123,-20.92179 -14.6123,0 m 14.6123,-16.0817 -14.6123,0 m 14.6123,-13.27129 -14.6123,0 m 14.6123,-11.24157 -14.6123,0 m 14.6123,-9.52409 -14.6123,0 m 14.6123,-8.58731 -14.6123,0 m 14.6123,275.73061 -14.6123,0 m 14.6123,-29.35298 -14.6123,0 m 14.6123,-20.92181 -14.6123,0 m 14.6123,-16.08166 -14.6123,0 m 14.6123,-13.27131 -14.6123,0 m 14.6123,-11.08543 -14.6123,0 m 14.6123,-9.68024 -14.6123,0 m 14.6123,-8.5873 -14.6123,0 m 14.6123,-7.65052 -29.2248,0 m 29.2248,283.38114 -14.6123,0 m 14.6123,-29.35298 -14.6123,0 m 14.6123,-20.76568 -14.6123,0 m 14.6123,-16.23783 -14.6123,0 m 14.6123,-13.27128 -14.6123,0 m 14.6123,-11.08543 -14.6123,0 m 14.6123,-9.68024 -14.6123,0 m 14.6123,-8.5873 -14.6123,0 m 14.6123,-7.6505 -29.2248,0 m 0,166.906 29.2248,0 0,-667.15567 -29.2248,0 m 29.2248,166.74989 -29.2248,0"
       style="color:#000000;fill:none;stroke:#000000;stroke-width:2.5;stroke-linecap:butt;stroke-linejoin:miter;stroke-miterlimit:4;stroke-opacity:1;stroke-dasharray:none;stroke-dashoffset:0;marker:none;visibility:visible;display:inline;overflow:visible;enable-background:accumulate"
       id="path4577" />
    <text
       xml:space="preserve"
       style="font-size:32px;font-style:normal;font-variant:normal;font-weight:normal;font-stretch:normal;text-align:start;line-height:125%;letter-spacing:0px;word-spacing:0px;text-anchor:start;fill:#000000;fill-opacity:1;stroke:none;font-family:Nimbus Sans L;-inkscape-font-specification:Nimbus Sans L"
       x="1451.666"
       y="1009.1022"
       id="text4579"
       sodipodi:linespacing="125%"><tspan
         sodipodi:role="line"
         id="tspan4581"
         x="1451.666"
         y="1009.1022">0.01 sec</tspan></text>
    <text
       xml:space="preserve"
       style="font-size:32px;font-style:normal;font-variant:normal;font-weight:normal;font-stretch:normal;text-align:start;line-height:125%;letter-spacing:0px;word-spacing:0px;text-anchor:start;fill:#000000;fill-opacity:1;stroke:none;font-family:Nimbus Sans L;-inkscape-font-specification:Nimbus Sans L"
       x="1451.666"
       y="842.30072"
       id="text4583"
       sodipodi:linespacing="125%"><tspan
         sodipodi:role="line"
         id="tspan4585"
         x="1451.666"
         y="842.30072">0.1 sec</tspan></text>
    <text
       xml:space="preserve"
       style="font-size:32px;font-style:normal;font-variant:normal;font-weight:normal;font-stretch:normal;text-align:start;line-height:125%;letter-spacing:0px;word-spacing:0px;text-anchor:start;fill:#000000;fill-opacity:1;stroke:none;font-family:Nimbus Sans L;-inkscape-font-specification:Nimbus Sans L"
       x="1451.7924"
       y="675.62555"
       id="text4587"
       sodipodi:linespacing="125%"><tspan
         sodipodi:role="line"
         id="tspan4589"
         x="1451.7924"
         y="675.62555">1 sec</tspan></text>
    <text
       xml:space="preserve"
       style="font-size:32px;font-style:normal;font-variant:normal;font-weight:normal;font-stretch:normal;text-align:start;line-height:125%;letter-spacing:0px;word-spacing:0px;text-anchor:start;fill:#000000;fill-opacity:1;stroke:none;font-family:Nimbus Sans L;-inkscape-font-specification:Nimbus Sans L"
       x="1451.666"
       y="508.69788"
       id="text4591"
       sodipodi:linespacing="125%"><tspan
         sodipodi:role="line"
         id="tspan4593"
         x="1451.666"
         y="508.69788">10 sec</tspan></text>
    <text
       xml:space="preserve"
       style="font-size:32px;font-style:normal;font-variant:normal;font-weight:normal;font-stretch:normal;text-align:start;line-height:125%;letter-spacing:0px;word-spacing:0px;text-anchor:start;fill:#000000;fill-opacity:1;stroke:none;font-family:Nimbus Sans L;-inkscape-font-specification:Nimbus Sans L"
       x="1451.5397"
       y="342.14899"
       id="text4595"
       sodipodi:linespacing="125%"><tspan
         sodipodi:role="line"
         id="tspan4597"
         x="1451.5397"
         y="342.14899">100 sec</tspan></text>
    <text
       xml:space="preserve"
       style="font-size:36px;font-style:normal;font-variant:normal;font-weight:normal;font-stretch:normal;text-align:center;line-height:125%;letter-spacing:0px;word-spacing:0px;text-anchor:middle;fill:#000000;fill-opacity:1;stroke:none;font-family:Nimbus Sans L;-inkscape-font-specification:Nimbus Sans L"
       x="37.913116"
       y="281.36578"
       id="text4599"
       sodipodi:linespacing="125%"><tspan
         sodipodi:role="line"
         id="tspan4601"
         x="37.913116"
         y="281.36578">RAM memory</tspan></text>
    <text
       xml:space="preserve"
       style="font-size:36px;font-style:normal;font-variant:normal;font-weight:normal;font-stretch:normal;text-align:center;line-height:125%;letter-spacing:0px;word-spacing:0px;text-anchor:middle;fill:#000000;fill-opacity:1;stroke:none;font-family:Nimbus Sans L;-inkscape-font-specification:Nimbus Sans L"
       x="1431.6519"
       y="281.11218"
       id="text4603"
       sodipodi:linespacing="125%"><tspan
         sodipodi:role="line"
         id="tspan4605"
         x="1431.6519"
         y="281.11218">time to complete</tspan></text>
    <text
       xml:space="preserve"
       style="font-size:32px;font-style:normal;font-variant:normal;font-weight:normal;font-stretch:normal;text-indent:0;text-align:end;text-decoration:none;line-height:125%;letter-spacing:0px;word-spacing:0px;text-transform:none;direction:ltr;block-progression:tb;writing-mode:lr-tb;text-anchor:end;baseline-shift:baseline;color:#000000;fill:#0000ff;fill-opacity:1;fill-rule:nonzero;stroke:none;stroke-width:1;marker:none;visibility:visible;display:inline;overflow:visible;enable-background:accumulate;font-family:Nimbus Sans L;-inkscape-font-specification:Nimbus Sans L"
       x="490.69006"
       y="466.59277"
       id="text4611"
       sodipodi:linespacing="125%"><tspan
         sodipodi:role="line"
         id="tspan4613"
         x="490.69006"
         y="466.59277">Python list of lists of dicts</tspan></text>
    <text
       xml:space="preserve"
       style="font-size:32px;font-style:normal;font-variant:normal;font-weight:normal;font-stretch:normal;text-indent:0;text-align:end;text-decoration:none;line-height:125%;letter-spacing:0px;word-spacing:0px;text-transform:none;direction:ltr;block-progression:tb;writing-mode:lr-tb;text-anchor:end;baseline-shift:baseline;color:#000000;fill:#005bc3;fill-opacity:1;fill-rule:nonzero;stroke:none;marker:none;visibility:visible;display:inline;overflow:visible;enable-background:accumulate;font-family:Nimbus Sans L;-inkscape-font-specification:Nimbus Sans L"
       x="677.56506"
       y="571.59277"
       id="text4615"
       sodipodi:linespacing="125%"><tspan
         sodipodi:role="line"
         id="tspan4617"
         x="677.56506"
         y="571.59277">Python list of lists of __slots__ classes</tspan></text>
    <text
       xml:space="preserve"
       style="font-size:32px;font-style:normal;font-variant:normal;font-weight:normal;font-stretch:normal;text-indent:0;text-align:start;text-decoration:none;line-height:125%;letter-spacing:0px;word-spacing:0px;text-transform:none;direction:ltr;block-progression:tb;writing-mode:lr-tb;text-anchor:start;baseline-shift:baseline;color:#000000;fill:#008000;fill-opacity:1;fill-rule:nonzero;stroke:none;stroke-width:1;marker:none;visibility:visible;display:inline;overflow:visible;enable-background:accumulate;font-family:Nimbus Sans L;-inkscape-font-specification:Nimbus Sans L"
       x="135.24207"
       y="718.97565"
       id="text4619"
       sodipodi:linespacing="125%"><tspan
         sodipodi:role="line"
         id="tspan4621"
         x="135.24207"
         y="718.97565">serialized JSON text (for reference)</tspan></text>
    <text
       xml:space="preserve"
       style="font-size:32px;font-style:normal;font-variant:normal;font-weight:normal;font-stretch:normal;text-indent:0;text-align:end;text-decoration:none;line-height:125%;letter-spacing:0px;word-spacing:0px;text-transform:none;direction:ltr;block-progression:tb;writing-mode:lr-tb;text-anchor:end;baseline-shift:baseline;color:#000000;fill:#b6b625;fill-opacity:1;fill-rule:nonzero;stroke:none;marker:none;visibility:visible;display:inline;overflow:visible;enable-background:accumulate;font-family:Nimbus Sans L;-inkscape-font-specification:Nimbus Sans L"
       x="583.49207"
       y="776.80768"
       id="text4623"
       sodipodi:linespacing="125%"><tspan
         sodipodi:role="line"
         id="tspan4625"
         x="583.49207"
         y="776.80768">std::vector&lt;std::vector&lt;struct&gt;&gt;</tspan></text>
    <text
       xml:space="preserve"
       style="font-size:32px;font-style:normal;font-variant:normal;font-weight:normal;font-stretch:normal;text-indent:0;text-align:end;text-decoration:none;line-height:125%;letter-spacing:0px;word-spacing:0px;text-transform:none;direction:ltr;block-progression:tb;writing-mode:lr-tb;text-anchor:end;baseline-shift:baseline;color:#000000;fill:#d36c00;fill-opacity:1;fill-rule:nonzero;stroke:none;marker:none;visibility:visible;display:inline;overflow:visible;enable-background:accumulate;font-family:Nimbus Sans L;-inkscape-font-specification:Nimbus Sans L"
       x="635.84857"
       y="851.59277"
       id="text4627"
       sodipodi:linespacing="125%"><tspan
         sodipodi:role="line"
         id="tspan4629"
         x="635.84857"
         y="851.59277">JaggedArray of Table of pt, eta, phi</tspan></text>
    <text
       xml:space="preserve"
       style="font-size:32px;font-style:normal;font-variant:normal;font-weight:normal;font-stretch:normal;text-align:end;line-height:125%;letter-spacing:0px;word-spacing:0px;text-anchor:end;fill:#6a006a;fill-opacity:1;stroke:none;font-family:Nimbus Sans L;-inkscape-font-specification:Nimbus Sans L"
       x="1334.1218"
       y="394.95108"
       id="text4631"
       sodipodi:linespacing="125%"><tspan
         sodipodi:role="line"
         id="tspan4633"
         x="1334.1218"
         y="394.95108">PyROOT load and compute</tspan></text>
    <text
       xml:space="preserve"
       style="font-size:32px;font-style:normal;font-variant:normal;font-weight:normal;font-stretch:normal;text-align:end;line-height:125%;letter-spacing:0px;word-spacing:0px;text-anchor:end;fill:#7400ff;fill-opacity:1;stroke:none;font-family:Nimbus Sans L;-inkscape-font-specification:Nimbus Sans L"
       x="1334.0374"
       y="485.80707"
       id="text4635"
       sodipodi:linespacing="125%"><tspan
         sodipodi:role="line"
         id="tspan4637"
         x="1334.0374"
         y="485.80707">JaggedArray compute in Python for loops</tspan></text>
    <text
       xml:space="preserve"
       style="font-size:32px;font-style:normal;font-variant:normal;font-weight:normal;font-stretch:normal;text-align:end;line-height:125%;letter-spacing:0px;word-spacing:0px;text-anchor:end;fill:#0000ff;fill-opacity:1;stroke:none;font-family:Nimbus Sans L;-inkscape-font-specification:Nimbus Sans L"
       x="1334.0374"
       y="639.70312"
       id="text4639"
       sodipodi:linespacing="125%"><tspan
         sodipodi:role="line"
         id="tspan4641"
         x="1334.0374"
         y="639.70312">Python list of lists of dicts in Python for loops</tspan></text>
    <text
       xml:space="preserve"
       style="font-size:32px;font-style:normal;font-variant:normal;font-weight:normal;font-stretch:normal;text-align:end;line-height:125%;letter-spacing:0px;word-spacing:0px;text-anchor:end;fill:#005bc3;fill-opacity:1;stroke:none;font-family:Nimbus Sans L;-inkscape-font-specification:Nimbus Sans L"
       x="1334.0374"
       y="671.92249"
       id="text4643"
       sodipodi:linespacing="125%"><tspan
         sodipodi:role="line"
         id="tspan4645"
         x="1334.0374"
         y="671.92249">Python list of lists of __slots__ classes in Python for loops</tspan></text>
    <text
       xml:space="preserve"
       style="font-size:32px;font-style:normal;font-variant:normal;font-weight:normal;font-stretch:normal;text-align:end;line-height:125%;letter-spacing:0px;word-spacing:0px;text-anchor:end;fill:#0090a0;fill-opacity:1;stroke:none;font-family:Nimbus Sans L;-inkscape-font-specification:Nimbus Sans L"
       x="1334.6979"
       y="706.61621"
       id="text4647"
       sodipodi:linespacing="125%"><tspan
         sodipodi:role="line"
         id="tspan4649"
         x="1334.6979"
         y="706.61621">root_numpy load</tspan></text>
    <text
       xml:space="preserve"
       style="font-size:32px;font-style:normal;font-variant:normal;font-weight:normal;font-stretch:normal;text-align:end;line-height:125%;letter-spacing:0px;word-spacing:0px;text-anchor:end;fill:#00a77e;fill-opacity:1;stroke:none;font-family:Nimbus Sans L;-inkscape-font-specification:Nimbus Sans L"
       x="1334.1218"
       y="741.83051"
       id="text4651"
       sodipodi:linespacing="125%"><tspan
         sodipodi:role="line"
         id="tspan4653"
         x="1334.1218"
         y="741.83051">ROOT RDataFrame load and compute</tspan></text>
    <text
       xml:space="preserve"
       style="font-size:32px;font-style:normal;font-variant:normal;font-weight:normal;font-stretch:normal;text-align:end;line-height:125%;letter-spacing:0px;word-spacing:0px;text-anchor:end;fill:#008000;fill-opacity:1;stroke:none;font-family:Nimbus Sans L;-inkscape-font-specification:Nimbus Sans L"
       x="1334.1218"
       y="779.92352"
       id="text4655"
       sodipodi:linespacing="125%"><tspan
         sodipodi:role="line"
         id="tspan4657"
         x="1334.1218"
         y="779.92352">ROOT TTreeReader load and compute</tspan></text>
    <text
       xml:space="preserve"
       style="font-size:32px;font-style:normal;font-variant:normal;font-weight:normal;font-stretch:normal;text-align:end;line-height:125%;letter-spacing:0px;word-spacing:0px;text-anchor:end;fill:#70cb00;fill-opacity:1;stroke:none;font-family:Nimbus Sans L;-inkscape-font-specification:Nimbus Sans L"
       x="1334.1218"
       y="815.01147"
       id="text4659"
       sodipodi:linespacing="125%"><tspan
         sodipodi:role="line"
         id="tspan4661"
         x="1334.1218"
         y="815.01147">ROOT TBranch::GetEntry load and compute</tspan></text>
    <text
       xml:space="preserve"
       style="font-size:32px;font-style:normal;font-variant:normal;font-weight:normal;font-stretch:normal;text-align:end;line-height:125%;letter-spacing:0px;word-spacing:0px;text-anchor:end;fill:#b6b625;fill-opacity:1;stroke:none;font-family:Nimbus Sans L;-inkscape-font-specification:Nimbus Sans L"
       x="1334.1218"
       y="850.09949"
       id="text4663"
       sodipodi:linespacing="125%"><tspan
         sodipodi:role="line"
         id="tspan4665"
         x="1334.1218"
         y="850.09949">C++ std::vector&lt;std::vector&lt;struct&gt;&gt; compute</tspan></text>
    <text
       xml:space="preserve"
       style="font-size:32px;font-style:normal;font-variant:normal;font-weight:normal;font-stretch:normal;text-align:end;line-height:125%;letter-spacing:0px;word-spacing:0px;text-anchor:end;fill:#c9910b;fill-opacity:1;stroke:none;font-family:Nimbus Sans L;-inkscape-font-specification:Nimbus Sans L"
       x="1334.6979"
       y="894.75909"
       id="text4667"
       sodipodi:linespacing="125%"><tspan
         sodipodi:role="line"
         id="tspan4669"
         x="1334.6979"
         y="894.75909">uproot load</tspan></text>
    <text
       xml:space="preserve"
       style="font-size:32px;font-style:normal;font-variant:normal;font-weight:normal;font-stretch:normal;text-align:end;line-height:125%;letter-spacing:0px;word-spacing:0px;text-anchor:end;fill:#d36c00;fill-opacity:1;stroke:none;font-family:Nimbus Sans L;-inkscape-font-specification:Nimbus Sans L"
       x="1333.4613"
       y="926.68567"
       id="text4671"
       sodipodi:linespacing="125%"><tspan
         sodipodi:role="line"
         id="tspan4673"
         x="1333.4613"
         y="926.68567">JaggedArray compute as Numpy-like ufunc</tspan></text>
    <text
       xml:space="preserve"
       style="font-size:32px;font-style:normal;font-variant:normal;font-weight:normal;font-stretch:normal;text-align:end;line-height:125%;letter-spacing:0px;word-spacing:0px;text-anchor:end;fill:#ff0000;fill-opacity:1;stroke:none;font-family:Nimbus Sans L;-inkscape-font-specification:Nimbus Sans L"
       x="1334.0374"
       y="959.02136"
       id="text4675"
       sodipodi:linespacing="125%"><tspan
         sodipodi:role="line"
         id="tspan4677"
         x="1334.0374"
         y="959.02136">JaggedArray compute in Numba-accelerated Python for loops</tspan></text>
    <path
       sodipodi:type="arc"
       id="path4681"
       style="color:#000000;fill:#0000ff;fill-opacity:1;fill-rule:nonzero;stroke:none;stroke-width:0.5;marker:none;visibility:visible;display:inline;overflow:visible;enable-background:accumulate"
       sodipodi:cx="197.86018"
       sodipodi:cy="458.36877"
       sodipodi:rx="3"
       sodipodi:ry="3"
       d="m 200.86018,458.36877 c 0,1.65686 -1.34314,3 -3,3 -1.65685,0 -3,-1.34314 -3,-3 0,-1.65685 1.34315,-3 3,-3 1.65686,0 3,1.34315 3,3 z"
       transform="matrix(2,0,0,2,-357.86018,-458.36877)" />
    <path
       sodipodi:type="arc"
       id="path4683"
       style="color:#000000;fill:#005bc3;fill-opacity:1;fill-rule:nonzero;stroke:none;stroke-width:0.5;marker:none;visibility:visible;display:inline;overflow:visible;enable-background:accumulate"
       sodipodi:cx="197.86018"
       sodipodi:cy="563.36877"
       sodipodi:rx="3"
       sodipodi:ry="3"
       d="m 200.86018,563.36877 c 0,1.65686 -1.34314,3 -3,3 -1.65685,0 -3,-1.34314 -3,-3 0,-1.65685 1.34315,-3 3,-3 1.65686,0 3,1.34315 3,3 z"
       transform="matrix(2,0,0,2,-357.86018,-563.36877)" />
    <path
       sodipodi:type="arc"
       id="path4685"
       style="color:#000000;fill:#008000;fill-opacity:1;fill-rule:nonzero;stroke:none;stroke-width:0.5;marker:none;visibility:visible;display:inline;overflow:visible;enable-background:accumulate"
       sodipodi:cx="197.86018"
       sodipodi:cy="710.51166"
       sodipodi:rx="3"
       sodipodi:ry="3"
       d="m 200.86018,710.51166 c 0,1.65685 -1.34314,3 -3,3 -1.65685,0 -3,-1.34315 -3,-3 0,-1.65686 1.34315,-3 3,-3 1.65686,0 3,1.34314 3,3 z"
       transform="matrix(2,0,0,2,-357.86018,-710.51166)" />
    <path
       sodipodi:type="arc"
       id="path4687"
       style="color:#000000;fill:#b6b625;fill-opacity:1;fill-rule:nonzero;stroke:none;stroke-width:0.5;marker:none;visibility:visible;display:inline;overflow:visible;enable-background:accumulate"
       sodipodi:cx="197.86018"
       sodipodi:cy="765.51166"
       sodipodi:rx="3"
       sodipodi:ry="3"
       d="m 200.86018,765.51166 c 0,1.65685 -1.34314,3 -3,3 -1.65685,0 -3,-1.34315 -3,-3 0,-1.65686 1.34315,-3 3,-3 1.65686,0 3,1.34314 3,3 z"
       transform="matrix(2,0,0,2,-357.86018,-765.51166)" />
    <path
       sodipodi:type="arc"
       id="path4689"
       style="color:#000000;fill:#d36c00;fill-opacity:1;fill-rule:nonzero;stroke:none;stroke-width:0.5;marker:none;visibility:visible;display:inline;overflow:visible;enable-background:accumulate"
       sodipodi:cx="197.86018"
       sodipodi:cy="843.36877"
       sodipodi:rx="3"
       sodipodi:ry="3"
       d="m 200.86018,843.36877 c 0,1.65686 -1.34314,3 -3,3 -1.65685,0 -3,-1.34314 -3,-3 0,-1.65685 1.34315,-3 3,-3 1.65686,0 3,1.34315 3,3 z"
       transform="matrix(2,0,0,2,-357.86018,-843.36877)" />
    <path
       sodipodi:type="arc"
       id="path4691"
       style="color:#000000;fill:#6a006a;fill-opacity:1;fill-rule:nonzero;stroke:none;marker:none;visibility:visible;display:inline;overflow:visible;enable-background:accumulate"
       sodipodi:cx="1431.7993"
       sodipodi:cy="386.58307"
       sodipodi:rx="3"
       sodipodi:ry="3"
       d="m 1434.7993,386.58307 c 0,1.65685 -1.3431,3 -3,3 -1.6568,0 -3,-1.34315 -3,-3 0,-1.65686 1.3432,-3 3,-3 1.6569,0 3,1.34314 3,3 z"
       transform="matrix(2,0,0,2,-1431.7993,-386.58307)" />
    <path
       sodipodi:type="arc"
       id="path4693"
       style="color:#000000;fill:#7400ff;fill-opacity:1;fill-rule:nonzero;stroke:none;marker:none;visibility:visible;display:inline;overflow:visible;enable-background:accumulate"
       sodipodi:cx="1431.7993"
       sodipodi:cy="621.58307"
       sodipodi:rx="3"
       sodipodi:ry="3"
       d="m 1434.7993,621.58307 c 0,1.65685 -1.3431,3 -3,3 -1.6568,0 -3,-1.34315 -3,-3 0,-1.65686 1.3432,-3 3,-3 1.6569,0 3,1.34314 3,3 z"
       transform="matrix(2,0,0,2,-1431.7993,-765.58307)" />
    <path
       sodipodi:type="arc"
       id="path4695"
       style="color:#000000;fill:#0000ff;fill-opacity:1;fill-rule:nonzero;stroke:none;marker:none;visibility:visible;display:inline;overflow:visible;enable-background:accumulate"
       sodipodi:cx="1431.7993"
       sodipodi:cy="647.65448"
       sodipodi:rx="3"
       sodipodi:ry="3"
       d="m 1434.7993,647.65448 c 0,1.65685 -1.3431,3 -3,3 -1.6568,0 -3,-1.34315 -3,-3 0,-1.65685 1.3432,-3 3,-3 1.6569,0 3,1.34315 3,3 z"
       transform="matrix(2,0,0,2,-1431.7993,-647.65448)" />
    <path
       sodipodi:type="arc"
       id="path4697"
       style="color:#000000;fill:#0090a0;fill-opacity:1;fill-rule:nonzero;stroke:none;marker:none;visibility:visible;display:inline;overflow:visible;enable-background:accumulate"
       sodipodi:cx="1431.7993"
       sodipodi:cy="684.44019"
       sodipodi:rx="3"
       sodipodi:ry="3"
       d="m 1434.7993,684.44019 c 0,1.65685 -1.3431,3 -3,3 -1.6568,0 -3,-1.34315 -3,-3 0,-1.65686 1.3432,-3 3,-3 1.6569,0 3,1.34314 3,3 z"
       transform="matrix(2,0,0,2,-1431.7993,-704.44019)" />
    <path
       sodipodi:type="arc"
       id="path4699"
       style="color:#000000;fill:#00a77e;fill-opacity:1;fill-rule:nonzero;stroke:none;marker:none;visibility:visible;display:inline;overflow:visible;enable-background:accumulate"
       sodipodi:cx="1431.7993"
       sodipodi:cy="707.65448"
       sodipodi:rx="3"
       sodipodi:ry="3"
       d="m 1434.7993,707.65448 c 0,1.65685 -1.3431,3 -3,3 -1.6568,0 -3,-1.34315 -3,-3 0,-1.65685 1.3432,-3 3,-3 1.6569,0 3,1.34315 3,3 z"
       transform="matrix(2,0,0,2,-1431.7993,-707.65448)" />
    <path
       sodipodi:type="arc"
       id="path4701"
       style="color:#000000;fill:#008000;fill-opacity:1;fill-rule:nonzero;stroke:none;marker:none;visibility:visible;display:inline;overflow:visible;enable-background:accumulate"
       sodipodi:cx="1431.7993"
       sodipodi:cy="795.15448"
       sodipodi:rx="3"
       sodipodi:ry="3"
       d="m 1434.7993,795.15448 c 0,1.65685 -1.3431,3 -3,3 -1.6568,0 -3,-1.34315 -3,-3 0,-1.65685 1.3432,-3 3,-3 1.6569,0 3,1.34315 3,3 z"
       transform="matrix(2,0,0,2,-1431.7993,-795.15448)" />
    <path
       sodipodi:type="arc"
       id="path4703"
       style="color:#000000;fill:#70cb00;fill-opacity:1;fill-rule:nonzero;stroke:none;marker:none;visibility:visible;display:inline;overflow:visible;enable-background:accumulate"
       sodipodi:cx="1431.7993"
       sodipodi:cy="805.86877"
       sodipodi:rx="3"
       sodipodi:ry="3"
       d="m 1434.7993,805.86877 c 0,1.65686 -1.3431,3 -3,3 -1.6568,0 -3,-1.34314 -3,-3 0,-1.65685 1.3432,-3 3,-3 1.6569,0 3,1.34315 3,3 z"
       transform="matrix(2,0,0,2,-1431.7993,-805.86877)" />
    <path
       sodipodi:type="arc"
       id="path4705"
       style="color:#000000;fill:#b6b625;fill-opacity:1;fill-rule:nonzero;stroke:none;marker:none;visibility:visible;display:inline;overflow:visible;enable-background:accumulate"
       sodipodi:cx="1431.7993"
       sodipodi:cy="819.44019"
       sodipodi:rx="3"
       sodipodi:ry="3"
       d="m 1434.7993,819.44019 c 0,1.65685 -1.3431,3 -3,3 -1.6568,0 -3,-1.34315 -3,-3 0,-1.65686 1.3432,-3 3,-3 1.6569,0 3,1.34314 3,3 z"
       transform="matrix(2,0,0,2,-1431.7993,-819.44019)" />
    <path
       sodipodi:type="arc"
       id="path4707"
       style="color:#000000;fill:#c9910b;fill-opacity:1;fill-rule:nonzero;stroke:none;marker:none;visibility:visible;display:inline;overflow:visible;enable-background:accumulate"
       sodipodi:cx="1431.7993"
       sodipodi:cy="886.58307"
       sodipodi:rx="3"
       sodipodi:ry="3"
       d="m 1434.7993,886.58307 c 0,1.65685 -1.3431,3 -3,3 -1.6568,0 -3,-1.34315 -3,-3 0,-1.65686 1.3432,-3 3,-3 1.6569,0 3,1.34314 3,3 z"
       transform="matrix(2,0,0,2,-1431.7993,-886.58307)" />
    <path
       sodipodi:type="arc"
       id="path4709"
       style="color:#000000;fill:#d36c00;fill-opacity:1;fill-rule:nonzero;stroke:none;marker:none;visibility:visible;display:inline;overflow:visible;enable-background:accumulate"
       sodipodi:cx="1431.6896"
       sodipodi:cy="918.46167"
       sodipodi:rx="3"
       sodipodi:ry="3"
       d="m 1434.6896,918.46167 c 0,1.65685 -1.3432,3 -3,3 -1.6569,0 -3,-1.34315 -3,-3 0,-1.65685 1.3431,-3 3,-3 1.6568,0 3,1.34315 3,3 z"
       transform="matrix(2,0,0,2,-1431.6896,-918.46167)" />
    <path
       sodipodi:type="arc"
       id="path4711"
       style="color:#000000;fill:#ff0000;fill-opacity:1;fill-rule:nonzero;stroke:none;marker:none;visibility:visible;display:inline;overflow:visible;enable-background:accumulate"
       sodipodi:cx="1431.7993"
       sodipodi:cy="934.79736"
       sodipodi:rx="3"
       sodipodi:ry="3"
       d="m 1434.7993,934.79736 c 0,1.65686 -1.3431,3 -3,3 -1.6568,0 -3,-1.34314 -3,-3 0,-1.65685 1.3432,-3 3,-3 1.6569,0 3,1.34315 3,3 z"
       transform="matrix(2,0,0,2,-1431.7993,-934.79736)" />
    <path
       transform="matrix(2,0,0,2,-1516.978,-386.58307)"
       d="m 1434.7993,386.58307 c 0,1.65685 -1.3431,3 -3,3 -1.6568,0 -3,-1.34315 -3,-3 0,-1.65686 1.3432,-3 3,-3 1.6569,0 3,1.34314 3,3 z"
       sodipodi:ry="3"
       sodipodi:rx="3"
       sodipodi:cy="386.58307"
       sodipodi:cx="1431.7993"
       style="color:#000000;fill:#6a006a;fill-opacity:1;fill-rule:nonzero;stroke:none;marker:none;visibility:visible;display:inline;overflow:visible;enable-background:accumulate"
       id="path4926"
       sodipodi:type="arc" />
    <path
       transform="matrix(2,0,0,2,-1516.978,-765.58307)"
       d="m 1434.7993,621.58307 c 0,1.65685 -1.3431,3 -3,3 -1.6568,0 -3,-1.34315 -3,-3 0,-1.65686 1.3432,-3 3,-3 1.6569,0 3,1.34314 3,3 z"
       sodipodi:ry="3"
       sodipodi:rx="3"
       sodipodi:cy="621.58307"
       sodipodi:cx="1431.7993"
       style="color:#000000;fill:#7400ff;fill-opacity:1;fill-rule:nonzero;stroke:none;marker:none;visibility:visible;display:inline;overflow:visible;enable-background:accumulate"
       id="path4928"
       sodipodi:type="arc" />
    <path
       transform="matrix(2,0,0,2,-1516.978,-663.82983)"
       d="m 1434.7993,647.65448 c 0,1.65685 -1.3431,3 -3,3 -1.6568,0 -3,-1.34315 -3,-3 0,-1.65685 1.3432,-3 3,-3 1.6569,0 3,1.34315 3,3 z"
       sodipodi:ry="3"
       sodipodi:rx="3"
       sodipodi:cy="647.65448"
       sodipodi:cx="1431.7993"
       style="color:#000000;fill:#0000ff;fill-opacity:1;fill-rule:nonzero;stroke:none;marker:none;visibility:visible;display:inline;overflow:visible;enable-background:accumulate"
       id="path4930"
       sodipodi:type="arc" />
    <path
       transform="matrix(2,0,0,2,-1516.978,-705.18189)"
       d="m 1434.7993,684.44019 c 0,1.65685 -1.3431,3 -3,3 -1.6568,0 -3,-1.34315 -3,-3 0,-1.65686 1.3432,-3 3,-3 1.6569,0 3,1.34314 3,3 z"
       sodipodi:ry="3"
       sodipodi:rx="3"
       sodipodi:cy="684.44019"
       sodipodi:cx="1431.7993"
       style="color:#000000;fill:#005bc3;fill-opacity:1;fill-rule:nonzero;stroke:none;marker:none;visibility:visible;display:inline;overflow:visible;enable-background:accumulate"
       id="path4932"
       sodipodi:type="arc" />
    <path
       sodipodi:type="arc"
       id="path4934"
       style="color:#000000;fill:#0090a0;fill-opacity:1;fill-rule:nonzero;stroke:none;marker:none;visibility:visible;display:inline;overflow:visible;enable-background:accumulate"
       sodipodi:cx="1431.7993"
       sodipodi:cy="684.44019"
       sodipodi:rx="3"
       sodipodi:ry="3"
       d="m 1434.7993,684.44019 c 0,1.65685 -1.3431,3 -3,3 -1.6568,0 -3,-1.34315 -3,-3 0,-1.65686 1.3432,-3 3,-3 1.6569,0 3,1.34314 3,3 z"
       transform="matrix(2,0,0,2,-1516.978,-670.44019)" />
    <path
       transform="matrix(2,0,0,2,-1516.978,-918.79736)"
       d="m 1434.7993,934.79736 c 0,1.65686 -1.3431,3 -3,3 -1.6568,0 -3,-1.34314 -3,-3 0,-1.65685 1.3432,-3 3,-3 1.6569,0 3,1.34315 3,3 z"
       sodipodi:ry="3"
       sodipodi:rx="3"
       sodipodi:cy="934.79736"
       sodipodi:cx="1431.7993"
       style="color:#000000;fill:#ff0000;fill-opacity:1;fill-rule:nonzero;stroke:none;marker:none;visibility:visible;display:inline;overflow:visible;enable-background:accumulate"
       id="path4955"
       sodipodi:type="arc" />
    <path
       transform="matrix(2,0,0,2,-1516.7585,-918.46167)"
       d="m 1434.6896,918.46167 c 0,1.65685 -1.3432,3 -3,3 -1.6569,0 -3,-1.34315 -3,-3 0,-1.65685 1.3431,-3 3,-3 1.6568,0 3,1.34315 3,3 z"
       sodipodi:ry="3"
       sodipodi:rx="3"
       sodipodi:cy="918.46167"
       sodipodi:cx="1431.6896"
       style="color:#000000;fill:#d36c00;fill-opacity:1;fill-rule:nonzero;stroke:none;marker:none;visibility:visible;display:inline;overflow:visible;enable-background:accumulate"
       id="path4957"
       sodipodi:type="arc" />
    <path
       transform="matrix(2,0,0,2,-1516.978,-886.58304)"
       d="m 1434.7993,886.58307 c 0,1.65685 -1.3431,3 -3,3 -1.6568,0 -3,-1.34315 -3,-3 0,-1.65686 1.3432,-3 3,-3 1.6569,0 3,1.34314 3,3 z"
       sodipodi:ry="3"
       sodipodi:rx="3"
       sodipodi:cy="886.58307"
       sodipodi:cx="1431.7993"
       style="color:#000000;fill:#c9910b;fill-opacity:1;fill-rule:nonzero;stroke:none;marker:none;visibility:visible;display:inline;overflow:visible;enable-background:accumulate"
       id="path4959"
       sodipodi:type="arc" />
    <path
       transform="matrix(2,0,0,2,-1516.978,-797.14888)"
       d="m 1434.7993,819.44019 c 0,1.65685 -1.3431,3 -3,3 -1.6568,0 -3,-1.34315 -3,-3 0,-1.65686 1.3432,-3 3,-3 1.6569,0 3,1.34314 3,3 z"
       sodipodi:ry="3"
       sodipodi:rx="3"
       sodipodi:cy="819.44019"
       sodipodi:cx="1431.7993"
       style="color:#000000;fill:#b6b625;fill-opacity:1;fill-rule:nonzero;stroke:none;marker:none;visibility:visible;display:inline;overflow:visible;enable-background:accumulate"
       id="path4961"
       sodipodi:type="arc" />
    <path
       transform="matrix(2,0,0,2,-1516.978,-805.09407)"
       d="m 1434.7993,805.86877 c 0,1.65686 -1.3431,3 -3,3 -1.6568,0 -3,-1.34314 -3,-3 0,-1.65685 1.3432,-3 3,-3 1.6569,0 3,1.34315 3,3 z"
       sodipodi:ry="3"
       sodipodi:rx="3"
       sodipodi:cy="805.86877"
       sodipodi:cx="1431.7993"
       style="color:#000000;fill:#70cb00;fill-opacity:1;fill-rule:nonzero;stroke:none;marker:none;visibility:visible;display:inline;overflow:visible;enable-background:accumulate"
       id="path4963"
       sodipodi:type="arc" />
    <path
       transform="matrix(2,0,0,2,-1516.978,-818.56144)"
       d="m 1434.7993,795.15448 c 0,1.65685 -1.3431,3 -3,3 -1.6568,0 -3,-1.34315 -3,-3 0,-1.65685 1.3432,-3 3,-3 1.6569,0 3,1.34315 3,3 z"
       sodipodi:ry="3"
       sodipodi:rx="3"
       sodipodi:cy="795.15448"
       sodipodi:cx="1431.7993"
       style="color:#000000;fill:#008000;fill-opacity:1;fill-rule:nonzero;stroke:none;marker:none;visibility:visible;display:inline;overflow:visible;enable-background:accumulate"
       id="path4965"
       sodipodi:type="arc" />
    <path
       transform="matrix(2,0,0,2,-1516.978,-681.65448)"
       d="m 1434.7993,707.65448 c 0,1.65685 -1.3431,3 -3,3 -1.6568,0 -3,-1.34315 -3,-3 0,-1.65685 1.3432,-3 3,-3 1.6569,0 3,1.34315 3,3 z"
       sodipodi:ry="3"
       sodipodi:rx="3"
       sodipodi:cy="707.65448"
       sodipodi:cx="1431.7993"
       style="color:#000000;fill:#00a77e;fill-opacity:1;fill-rule:nonzero;stroke:none;marker:none;visibility:visible;display:inline;overflow:visible;enable-background:accumulate"
       id="path4967"
       sodipodi:type="arc" />
    <path
       style="color:#000000;fill:none;stroke:#6a006a;stroke-width:2;stroke-linecap:butt;stroke-linejoin:miter;stroke-miterlimit:4;stroke-opacity:1;stroke-dasharray:none;stroke-dashoffset:0;marker:none;visibility:visible;display:inline;overflow:visible;enable-background:accumulate"
       d="m 1341.3596,151.71489 85.1787,0"
       id="path4995"
       inkscape:connector-curvature="0"
       transform="translate(5.261054,234.86818)"
       sodipodi:nodetypes="cc" />
    <path
       style="color:#000000;fill:none;stroke:#7400ff;stroke-width:2;stroke-linecap:butt;stroke-linejoin:miter;stroke-miterlimit:4;stroke-opacity:1;stroke-dasharray:none;stroke-dashoffset:0;marker:none;visibility:visible;display:inline;overflow:visible;enable-background:accumulate"
       d="m 1341.3596,242.71489 85.1787,0"
       id="path4997"
       inkscape:connector-curvature="0"
       transform="translate(5.261054,234.86818)"
       sodipodi:nodetypes="cc" />
    <path
       style="color:#000000;fill:none;stroke:#0000ff;stroke-width:2;stroke-linecap:butt;stroke-linejoin:miter;stroke-miterlimit:4;stroke-opacity:1;stroke-dasharray:none;stroke-dashoffset:0;marker:none;visibility:visible;display:inline;overflow:visible;enable-background:accumulate"
       d="m 1341.3596,396.61095 85.1787,16.17535"
       id="path4999"
       inkscape:connector-curvature="0"
       transform="translate(5.261054,234.86818)"
       sodipodi:nodetypes="cc" />
    <path
       style="color:#000000;fill:none;stroke:#ff0000;stroke-width:2;stroke-linecap:butt;stroke-linejoin:miter;stroke-miterlimit:4;stroke-opacity:1;stroke-dasharray:none;stroke-dashoffset:0;marker:none;visibility:visible;display:inline;overflow:visible;enable-background:accumulate"
       d="m 1341.3596,715.92919 85.1787,-16"
       id="path5017"
       inkscape:connector-curvature="0"
       transform="translate(5.261054,234.86818)"
       sodipodi:nodetypes="cc" />
    <path
       style="color:#000000;fill:none;stroke:#005bc3;stroke-width:2;stroke-linecap:butt;stroke-linejoin:miter;stroke-miterlimit:4;stroke-opacity:1;stroke-dasharray:none;stroke-dashoffset:0;marker:none;visibility:visible;display:inline;overflow:visible;enable-background:accumulate"
       d="m 1341.3596,428.83031 85.1787,-16.04401"
       id="path5019"
       inkscape:connector-curvature="0"
       transform="translate(5.261054,234.86818)"
       sodipodi:nodetypes="cc" />
    <path
       style="color:#000000;fill:none;stroke:#0090a0;stroke-width:2;stroke-linecap:butt;stroke-linejoin:miter;stroke-miterlimit:4;stroke-opacity:1;stroke-dasharray:none;stroke-dashoffset:0;marker:none;visibility:visible;display:inline;overflow:visible;enable-background:accumulate"
       d="m 1341.3596,463.572 85.1787,-34"
       id="path5021"
       inkscape:connector-curvature="0"
       transform="translate(5.261054,234.86818)"
       sodipodi:nodetypes="cc" />
    <path
       style="color:#000000;fill:none;stroke:#00a77e;stroke-width:2;stroke-linecap:butt;stroke-linejoin:miter;stroke-miterlimit:4;stroke-opacity:1;stroke-dasharray:none;stroke-dashoffset:0;marker:none;visibility:visible;display:inline;overflow:visible;enable-background:accumulate"
       d="m 1341.3596,498.7863 85.1787,-26"
       id="path5023"
       inkscape:connector-curvature="0"
       transform="translate(5.261054,234.86818)"
       sodipodi:nodetypes="cc" />
    <path
       style="color:#000000;fill:none;stroke:#008000;stroke-width:2;stroke-linecap:butt;stroke-linejoin:miter;stroke-miterlimit:4;stroke-opacity:1;stroke-dasharray:none;stroke-dashoffset:0;marker:none;visibility:visible;display:inline;overflow:visible;enable-background:accumulate"
       d="m 1341.3596,536.87934 85.1787,23.40696"
       id="path5025"
       inkscape:connector-curvature="0"
       transform="translate(5.261054,234.86818)"
       sodipodi:nodetypes="cc" />
    <path
       style="color:#000000;fill:none;stroke:#70cb00;stroke-width:2;stroke-linecap:butt;stroke-linejoin:miter;stroke-miterlimit:4;stroke-opacity:1;stroke-dasharray:none;stroke-dashoffset:0;marker:none;visibility:visible;display:inline;overflow:visible;enable-background:accumulate"
       d="m 1341.3596,571.7753 85.1787,-0.7747"
       id="path5027"
       inkscape:connector-curvature="0"
       transform="translate(5.261054,234.86818)"
       sodipodi:nodetypes="cc" />
    <path
       style="color:#000000;fill:none;stroke:#b6b625;stroke-width:2;stroke-linecap:butt;stroke-linejoin:miter;stroke-miterlimit:4;stroke-opacity:1;stroke-dasharray:none;stroke-dashoffset:0;marker:none;visibility:visible;display:inline;overflow:visible;enable-background:accumulate"
       d="M 1341.3596,606.86331 1426.5383,584.572"
       id="path5029"
       inkscape:connector-curvature="0"
       transform="translate(5.261054,234.86818)"
       sodipodi:nodetypes="cc" />
    <path
       style="color:#000000;fill:none;stroke:#c9910b;stroke-width:2;stroke-linecap:butt;stroke-linejoin:miter;stroke-miterlimit:4;stroke-opacity:1;stroke-dasharray:none;stroke-dashoffset:0;marker:none;visibility:visible;display:inline;overflow:visible;enable-background:accumulate"
       d="m 1341.3596,651.71492 85.1787,-3e-5"
       id="path5031"
       inkscape:connector-curvature="0"
       transform="translate(5.261054,234.86818)"
       sodipodi:nodetypes="cc" />
    <path
       style="color:#000000;fill:none;stroke:#d36c00;stroke-width:2;stroke-linecap:butt;stroke-linejoin:miter;stroke-miterlimit:4;stroke-opacity:1;stroke-dasharray:none;stroke-dashoffset:0;marker:none;visibility:visible;display:inline;overflow:visible;enable-background:accumulate"
       d="m 1341.3596,683.59349 85.0689,0"
       id="path5033"
       inkscape:connector-curvature="0"
       transform="translate(5.261054,234.86818)"
       sodipodi:nodetypes="cc" />
    <path
       transform="matrix(2,0,0,2,-273.75304,-843.36877)"
       d="m 200.86018,843.36877 c 0,1.65686 -1.34314,3 -3,3 -1.65685,0 -3,-1.34314 -3,-3 0,-1.65685 1.34315,-3 3,-3 1.65686,0 3,1.34315 3,3 z"
       sodipodi:ry="3"
       sodipodi:rx="3"
       sodipodi:cy="843.36877"
       sodipodi:cx="197.86018"
       style="color:#000000;fill:#d36c00;fill-opacity:1;fill-rule:nonzero;stroke:none;stroke-width:0.5;marker:none;visibility:visible;display:inline;overflow:visible;enable-background:accumulate"
       id="path5109"
       sodipodi:type="arc" />
    <path
       transform="matrix(2,0,0,2,-273.75304,-765.51166)"
       d="m 200.86018,765.51166 c 0,1.65685 -1.34314,3 -3,3 -1.65685,0 -3,-1.34315 -3,-3 0,-1.65686 1.34315,-3 3,-3 1.65686,0 3,1.34314 3,3 z"
       sodipodi:ry="3"
       sodipodi:rx="3"
       sodipodi:cy="765.51166"
       sodipodi:cx="197.86018"
       style="color:#000000;fill:#b6b625;fill-opacity:1;fill-rule:nonzero;stroke:none;stroke-width:0.5;marker:none;visibility:visible;display:inline;overflow:visible;enable-background:accumulate"
       id="path5111"
       sodipodi:type="arc" />
    <path
       transform="matrix(2,0,0,2,-273.75304,-710.51166)"
       d="m 200.86018,710.51166 c 0,1.65685 -1.34314,3 -3,3 -1.65685,0 -3,-1.34315 -3,-3 0,-1.65686 1.34315,-3 3,-3 1.65686,0 3,1.34314 3,3 z"
       sodipodi:ry="3"
       sodipodi:rx="3"
       sodipodi:cy="710.51166"
       sodipodi:cx="197.86018"
       style="color:#000000;fill:#008000;fill-opacity:1;fill-rule:nonzero;stroke:none;stroke-width:0.5;marker:none;visibility:visible;display:inline;overflow:visible;enable-background:accumulate"
       id="path5113"
       sodipodi:type="arc" />
    <path
       transform="matrix(2,0,0,2,-273.75304,-563.36877)"
       d="m 200.86018,563.36877 c 0,1.65686 -1.34314,3 -3,3 -1.65685,0 -3,-1.34314 -3,-3 0,-1.65685 1.34315,-3 3,-3 1.65686,0 3,1.34315 3,3 z"
       sodipodi:ry="3"
       sodipodi:rx="3"
       sodipodi:cy="563.36877"
       sodipodi:cx="197.86018"
       style="color:#000000;fill:#005bc3;fill-opacity:1;fill-rule:nonzero;stroke:none;stroke-width:0.5;marker:none;visibility:visible;display:inline;overflow:visible;enable-background:accumulate"
       id="path5115"
       sodipodi:type="arc" />
    <path
       transform="matrix(2,0,0,2,-273.75304,-458.36877)"
       d="m 200.86018,458.36877 c 0,1.65686 -1.34314,3 -3,3 -1.65685,0 -3,-1.34314 -3,-3 0,-1.65685 1.34315,-3 3,-3 1.65686,0 3,1.34315 3,3 z"
       sodipodi:ry="3"
       sodipodi:rx="3"
       sodipodi:cy="458.36877"
       sodipodi:cx="197.86018"
       style="color:#000000;fill:#0000ff;fill-opacity:1;fill-rule:nonzero;stroke:none;stroke-width:0.5;marker:none;visibility:visible;display:inline;overflow:visible;enable-background:accumulate"
       id="path5117"
       sodipodi:type="arc" />
    <path
       style="color:#000000;fill:none;stroke:#d36c00;stroke-width:2;stroke-linecap:butt;stroke-linejoin:miter;stroke-miterlimit:4;stroke-opacity:1;stroke-dasharray:none;stroke-dashoffset:0;marker:none;visibility:visible;display:inline;overflow:visible;enable-background:accumulate"
       d="m 37.86018,843.36878 84.10714,0"
       id="path5309"
       inkscape:connector-curvature="0" />
    <path
       style="color:#000000;fill:none;stroke:#b6b625;stroke-width:2;stroke-linecap:butt;stroke-linejoin:miter;stroke-miterlimit:4;stroke-opacity:1;stroke-dasharray:none;stroke-dashoffset:0;marker:none;visibility:visible;display:inline;overflow:visible;enable-background:accumulate"
       d="m 37.86018,765.51166 84.10714,0"
       id="path5311"
       inkscape:connector-curvature="0" />
    <path
       style="color:#000000;fill:none;stroke:#008000;stroke-width:2;stroke-linecap:butt;stroke-linejoin:miter;stroke-miterlimit:4;stroke-opacity:1;stroke-dasharray:none;stroke-dashoffset:0;marker:none;visibility:visible;display:inline;overflow:visible;enable-background:accumulate"
       d="m 37.86018,710.51166 84.10714,0"
       id="path5313"
       inkscape:connector-curvature="0" />
    <path
       style="color:#000000;fill:none;stroke:#005bc3;stroke-width:2;stroke-linecap:butt;stroke-linejoin:miter;stroke-miterlimit:4;stroke-opacity:1;stroke-dasharray:none;stroke-dashoffset:0;marker:none;visibility:visible;display:inline;overflow:visible;enable-background:accumulate"
       d="m 37.86018,563.36878 84.10714,0"
       id="path5315"
       inkscape:connector-curvature="0" />
    <path
       style="color:#000000;fill:none;stroke:#0000ff;stroke-width:2;stroke-linecap:butt;stroke-linejoin:miter;stroke-miterlimit:4;stroke-opacity:1;stroke-dasharray:none;stroke-dashoffset:0;marker:none;visibility:visible;display:inline;overflow:visible;enable-background:accumulate"
       d="m 37.86018,458.36878 84.10714,0"
       id="path5317"
       inkscape:connector-curvature="0" />
  </g>
</svg>
